<?xml version="1.0" encoding="utf-8" ?>
<svg baseProfile="full" height="200mm" version="1.1" viewBox="0,0,200,200" width="200mm" xmlns="http://www.w3.org/2000/svg" xmlns:ev="http://www.w3.org/2001/xml-events" xmlns:xlink="http://www.w3.org/1999/xlink"><defs /><rect fill="#1a1a1a" height="200" width="200" x="0" y="0" /><text alignment-baseline="middle" fill="#e1ed5e" style="dominant-baseline: central; font-size:9.0px; font-family:Arial;" text-anchor="middle" x="100.0" y="100.0">2024</text><line stroke="#e1ed5e" stroke-width="0.3" x1="100.0" x2="100.0" y1="15.0" y2="10.0" /><path d="M 100.0 14.0 a86.0,86.0 0 0,1 42.35913384403234,11.155469271406648" fill="none" id="id25" stroke="none" /><text fill="#e1ed5e" style="font-size:6.75px; font-family:Arial;" text-anchor="middle"><textPath startOffset="22.145653131862478" xlink:href="#id25">January</textPath></text><path d="M 104.64783097203109 79.52079915486377 l 10.150363075533539 -44.72437257847765 a66.86174193272251,66.86174193272251 0 0,0 1.117125494720665,0.2636385749790554 l -10.91662072399409 44.543537859852364" fill="#75ff27" stroke="none" /><path d="M 105.69591212413111 79.78721728523813 l 12.947235095036328 -45.945169804182996 a68.73457368555154,68.73457368555154 0 0,0 1.1329421183082145,0.329782938964175 l -13.734037225726146 45.716143170916304" fill="#52ff2b" stroke="none" /><path d="M 106.72888874123014 80.10723608172694 l 12.427983943526415 -36.741126221008464 a59.786146249513195,59.786146249513195 0 0,0 0.9693732242681723,0.3371983272607538 l -13.056862939839606 36.522369461179125" fill="#fff917" stroke="none" /><path d="M 108.73861861582097 80.90454125486305 l 16.06525641866753 -35.1054845919594 a59.606832455328906,59.606832455328906 0 0,0 0.9267763584302455,0.433778131427009 l -16.66552149096928 34.82453022896186" fill="#fff517" stroke="none" /><path d="M 110.02825361518725 81.54914285379988 l 21.186378195270347 -38.980549607789605 a65.36604409633986,65.36604409633986 0 0,0 0.9812869189817034,0.544303312418827 l -21.85240930240815 38.611113379937635" fill="#92ff23" stroke="none" /><path d="M 110.34350942703115 81.72400993836675 l 30.320517823588908 -53.573449738377285 a82.55849509175,82.55849509175 0 0,0 1.2273992385597507,0.7086392807856138 l -31.235709530009057 53.0450635603155" fill="#4aeaff" stroke="none" /><line stroke="#e1ed5e" stroke-width="0.3" x1="143.13028292997686" x2="145.6673583964461" y1="26.7553504044142" y2="22.446841604673864" /><path d="M 143.63769802327073 25.89364864446614 a86.0,86.0 0 0,1 29.32050498858742,28.57503671076993" fill="none" id="id26" stroke="none" /><text fill="#e1ed5e" style="font-size:6.75px; font-family:Arial;" text-anchor="middle"><textPath startOffset="20.669276256404974" xlink:href="#id26">February</textPath></text><path d="M 110.96478420261332 82.08984904055464 l 23.612292340418882 -38.56890500541401 a66.22279052519929,66.22279052519929 0 0,0 0.9644430873452711,0.601883816405782 l -24.270899556553864 38.15788539216668" fill="#81ff25" stroke="none" /><path d="M 111.27062007382361 82.28071324371311 l 15.276920442047524 -24.017856363938847 a49.46474525639475,49.46474525639475 0 0,0 0.7125617208003073,0.46187389849628313 l -15.686967795104838 23.75206862373867" fill="#ff0000" stroke="none" /><path d="M 111.8722381534696 82.67804972795209 l 25.306066805715023 -36.92230775050721 a65.76219193469502,65.76219193469502 0 0,0 0.9256965119556747,0.6462080585591716 l -25.93615840884446 36.48245487614291" fill="#8aff24" stroke="none" /><path d="M 112.45986205192187 83.09580414077388 l 27.092494622138794 -36.75617221917988 a66.66201332679748,66.66201332679748 0 0,0 0.9153234426653674,0.6868757756281734 l -27.719471053714926 36.2856774162877" fill="#79ff26" stroke="none" /><path d="M 114.13192950727249 84.46653392183569 l 31.35997039297427 -34.47010092010572 a67.60081115700129,67.60081115700129 0 0,0 0.8516743841509192,0.7882970952098177 l -31.94707454843915 33.92668607876353" fill="#67ff28" stroke="none" /><path d="M 114.65682725009322 84.96080404539774 l 28.678259749435714 -29.4264209197119 a62.08961949690168,62.08961949690168 0 0,0 0.7569259174887163,0.7504565040766673 l -29.179177587054394 28.929784405406576" fill="#d4ff1c" stroke="none" /><path d="M 115.41159269507618 85.73525988315684 l 43.51770517563947 -40.27933822895706 a80.29768757646963,80.29768757646963 0 0,0 0.9276382677681971,1.0196369545835244 l -44.20274114424954 39.526363698815864" fill="#45ffed" stroke="none" /><path d="M 115.8921839302757 86.27271002978787 l 46.116847650899295 -39.834634622493176 a81.93900026061954,81.93900026061954 0 0,0 0.9103244867426042,1.0723599564044315 l -46.793866701149014 39.03710788363919" fill="#48f4ff" stroke="none" /><line stroke="#e1ed5e" stroke-width="0.3" x1="172.87174338648825" x2="177.1583165268699" y1="56.24261187166439" y2="53.66864786411523" /><path d="M 173.72905801456457 55.72781907015455 a86.0,86.0 0 0,1 12.242430191666344,42.057860355516425" fill="none" id="id27" stroke="none" /><text fill="#e1ed5e" style="font-size:6.75px; font-family:Arial;" text-anchor="middle"><textPath startOffset="22.145653131862474" xlink:href="#id27">March</textPath></text><path d="M 119.16976305983485 91.42560881287824 l 31.653112320000794 -14.15803452940165 a55.67519951317246,55.67519951317246 0 0,0 0.3827434486498748,0.8757919129522871 l -31.89148965066764 13.612580546673515" fill="#ff9b0e" stroke="none" /><path d="M 120.26092885502905 94.47779374421319 l 34.4751854073536 -9.39636508711413 a56.732759279430745,56.732759279430745 0 0,0 0.24803162308689491,0.9418164726445037 l -34.631406511245224 8.803168110096827" fill="#ffb410" stroke="none" /><path d="M 120.86939407059847 97.66154086499901 l 34.32082123365063 -3.845719605613088 a55.53560958542937,55.53560958542937 0 0,0 0.09802724663829142,0.9483246880759837 l -34.38178087277059 3.2559903952541727" fill="#ff980e" stroke="none" /><path d="M 120.99303781780057 99.45929381324524 l 34.2926428917043 -0.8832568365114715 a55.304015787327316,55.304015787327316 0 0,0 0.01629774688420614,0.9492620499922654 l -34.30275207018717 0.29444787055013966" fill="#ff920d" stroke="none" /><line stroke="#e1ed5e" stroke-width="0.3" x1="184.99686870605535" x2="189.99668451229388" y1="99.2704041080226" y2="99.22748670261217" /><path d="M 185.99683186730306 99.26182062694052 a86.0,86.0 0 0,1 -10.086455211305974,41.156179273409016" fill="none" id="id28" stroke="none" /><text fill="#e1ed5e" style="font-size:6.75px; font-family:Arial;" text-anchor="middle"><textPath startOffset="21.40746469413373" xlink:href="#id28">April</textPath></text><path d="M 120.99922638620191 100.18025310272382 l 47.94122278997131 0.4115177386698715 a68.94298894986528,68.94298894986528 0 0,0 -0.02031706680516632,1.1833672852042476 l -47.92709429156748 -1.2344319398431902" fill="#4eff2b" stroke="none" /><path d="M 120.592083275326 104.11899336999214 l 29.88142928264192 5.977122734763335 a51.473362337621275,51.473362337621275 0 0,0 -0.18075064620681594,0.8649572745700841 l -29.77442092561074 -6.489196460618828" fill="#ff3404" stroke="none" /><path d="M 120.43855184770803 104.8234425847677 l 33.99405784703069 8.022505090878639 a55.92787650058965,55.92787650058965 0 0,0 -0.22853854377174898,0.9325152475580479 l -33.85133177674265 -8.604876163044787" fill="#ffa10e" stroke="none" /><path d="M 120.16314734710363 105.8691983318838 l 44.354071370826894 12.910823752885312 a67.19494579655304,67.19494579655304 0 0,0 -0.3318908121511961,1.1047565720147308 l -44.12590423867207 -13.670317928490766" fill="#6fff28" stroke="none" /><path d="M 119.31412917781788 108.2440532568976 l 30.02791722394037 12.817132292569966 a53.64896159165027,53.64896159165027 0 0,0 -0.3688139199432124,0.8439184252790931 l -29.803469421980193 -13.330712787624904" fill="#ff6a09" stroke="none" /><line stroke="#e1ed5e" stroke-width="0.3" x1="174.33088141563837" x2="178.70328620479359" y1="141.23008692659167" y2="143.65538615756765" /><path d="M 175.20536237346943 141.71514677278685 a86.0,86.0 0 0,1 -30.301960400862466,31.631185727798858" fill="none" id="id29" stroke="none" /><text fill="#e1ed5e" style="font-size:6.75px; font-family:Arial;" text-anchor="middle"><textPath startOffset="22.145653131862474" xlink:href="#id29">May</textPath></text><path d="M 116.1254893667686 113.45245675266167 l 38.09524233450914 31.78040605969192 a70.61090301379204,70.61090301379204 0 0,0 -0.7844717880375979,0.9241057937820363 l -37.54407598296443 -32.42967863592351" fill="#31ff2f" stroke="none" /><path d="M 115.16444852881244 114.52719865689866 l 34.65911996440338 33.20265290488611 a68.99657025902212,68.99657025902212 0 0,0 -0.8266879882140781,0.8482547031444548 l -34.0840451750385 -33.7927303000983" fill="#4dff2c" stroke="none" /><path d="M 113.03279911837588 116.46651593811092 l 29.99465130419583 37.897262074900304 a69.33095881144894,69.33095881144894 0 0,0 -0.9395667336496569,0.7306127750045597 l -29.33967462591094 -38.406575901525656" fill="#47ff2c" stroke="none" /><path d="M 111.8722381534696 117.32195027204791 l 25.41781915732908 37.08535777127162 a65.95986311965264,65.95986311965264 0 0,0 -0.9394685664619846,0.6321163786656079 l -24.777454302770092 -37.51622382399435" fill="#86ff25" stroke="none" /><line stroke="#e1ed5e" stroke-width="0.3" x1="143.1302829299769" x2="145.66735839644613" y1="173.24464959558577" y2="177.55315839532614" /><path d="M 143.63769802327073 174.10635135553383 a86.0,86.0 0 0,1 -40.68552437913181,11.842963189579606" fill="none" id="id30" stroke="none" /><text fill="#e1ed5e" style="font-size:6.75px; font-family:Arial;" text-anchor="middle"><textPath startOffset="21.407464694133747" xlink:href="#id30">June</textPath></text><path d="M 110.02825361518725 118.45085714620011 l 22.68183140176287 41.73201507133085 a68.49764791704723,68.49764791704723 0 0,0 -1.037938936167586,0.5526440213661664 l -21.962103649808732 -42.11522956041958" fill="#57ff2a" stroke="none" /><path d="M 108.4095320186766 119.2426549942271 l 18.81740594811132 43.05790735342323 a67.99019208592357,67.99019208592357 0 0,0 -1.0734839489579615,0.458206464508798 l -18.07548692398293 -43.37458846759144" fill="#60ff29" stroke="none" /><path d="M 104.9986988182912 120.39639698878246 l 7.179865125608383 29.296299847463995 a51.163283110007214,51.163283110007214 0 0,0 -0.8548357596383357,0.20173891167755012 l -6.675897212230168 -29.41523490278777" fill="#ff2c04" stroke="none" /><path d="M 103.94208987418118 120.62667999033965 l 7.087128115423784 37.08284903518332 a58.754007436173275,58.754007436173275 0 0,0 -0.992285985823503,0.18082756140238665 l -6.449507396049224 -37.19904477051707" fill="#ffe215" stroke="none" /><path d="M 103.58742460773223 120.69131181640829 l 10.762273823196699 62.07393544922487 a84.0,84.0 0 0,0 -1.4228899877877108,0.2341360060173172 l -9.695106332355914 -62.24953745373786" fill="#4dd2ff" stroke="none" /><path d="M 101.44090949804482 120.95050786540614 l 3.441336449155727 50.03627670119184 a71.15447918854827,71.15447918854827 0 0,0 -1.2193019622415269,0.07335017825458108 l -2.581890134781735 -50.08797885727111" fill="#30ff39" stroke="none" /><line stroke="#e1ed5e" stroke-width="0.3" x1="101.45913802915013" x2="101.54496967792366" y1="184.9874750549273" y2="189.98673829345242" /><path d="M 101.47630435890484 185.9873277026323 a86.0,86.0 0 0,1 -42.54439059252881,-10.42667462771756" fill="none" id="id31" stroke="none" /><text fill="#e1ed5e" style="font-size:6.75px; font-family:Arial;" text-anchor="middle"><textPath startOffset="22.145653131862474" xlink:href="#id31">July</textPath></text><path d="M 100.36049292484886 120.99690560180557 l 0.7498751507607627 43.676468158882564 a64.68290493517586,64.68290493517586 0 0,0 -1.1103680756096097,0.009531174487724435 l -5.349612970632123e-15 -43.682904935175856" fill="#9fff22" stroke="none" /><path d="M 94.30408787586889 120.21278271476187 l -12.113181446814188 42.985407645538324 a65.65953912902089,65.65953912902089 0 0,0 -1.0822567648166044,-0.3150291712590259 l 12.849298224012399 -42.77113477997678" fill="#8cff24" stroke="none" /><path d="M 93.27111125876986 119.89276391827306 l -15.63442053753613 46.22038626475326 a69.79302421461006,69.79302421461006 0 0,0 -1.1316248522188928,-0.3936378658931779 l 16.425551161800044 -45.945189966291494" fill="#3fff2d" stroke="none" /><path d="M 92.59220618246901 119.65005319985036 l -17.351456434313693 46.02679966905325 a70.18881303881042,70.18881303881042 0 0,0 -1.1237821812525701,-0.4347030892993257 l 18.139010878059793 -45.72215669161588" fill="#38ff2e" stroke="none" /><path d="M 91.26138138417905 119.09545874513695 l -18.824559004443508 41.13505871671199 a66.23778373593382,66.23778373593382 0 0,0 -1.0298754265677077,-0.482033701092471 l 19.527923144882703 -40.805848784049" fill="#81ff25" stroke="none" /><path d="M 90.6110303473126 118.78422872680471 l -20.291305365010075 40.596203336613264 a66.38489615239564,66.38489615239564 0 0,0 -1.0149706211383327,-0.5182512311052282 l 20.98520320786199 -40.2418941538352" fill="#7eff26" stroke="none" /><path d="M 89.97174638481275 118.45085714620012 l -23.66078183353233 43.53317360430161 a70.5476518216179,70.5476518216179 0 0,0 -1.0590741547002267,-0.5874505808135078 l 24.40460017638866 -43.120590108054955" fill="#32ff2f" stroke="none" /><line stroke="#e1ed5e" stroke-width="0.3" x1="58.13341422392154" x2="55.67067388415222" y1="173.97424548756322" y2="178.32567169271397" /><path d="M 57.64086615596768 174.84453072859336 a86.0,86.0 0 0,1 -31.369924170532247,-30.572349798747897" fill="none" id="id32" stroke="none" /><text fill="#e1ed5e" style="font-size:6.75px; font-family:Arial;" text-anchor="middle"><textPath startOffset="22.145653131862474" xlink:href="#id32">August</textPath></text><path d="M 89.34428304082925 118.09573695890944 l -22.744998448998526 38.625979898016276 a65.82523036780628,65.82523036780628 0 0,0 -0.9687820237500103,-0.581725769893463 l 23.404713229305965 -38.22984012758689" fill="#89ff24" stroke="none" /><path d="M 88.72937992617639 117.7192867562869 l -27.611017156746648 43.40910503845702 a72.44626972551025,72.44626972551025 0 0,0 -1.0436208324452798,-0.676462414921845 l 28.352123621448936 -42.92872878183128" fill="#33ff55" stroke="none" /><path d="M 87.54013794807813 116.9041958592261 l -30.418102031218073 41.26799737099192 a72.26703168893036,72.26703168893036 0 0,0 -0.9922848851330478,-0.7446290768377625 l 31.12203990526189 -40.73974926689014" fill="#33ff51" stroke="none" /><path d="M 86.96720088162412 116.46651593811092 l -26.40618180753639 33.36334809192077 a63.54878886120425,63.54878886120425 0 0,0 -0.8495844532209147,-0.6843650965868403 l 26.975017031112568 -32.90513470154052" fill="#b6ff1f" stroke="none" /><path d="M 86.40962598614128 116.0094264158162 l -29.007020840602326 34.17019761311312 a65.82197745488634,65.82197745488634 0 0,0 -0.8551231491561534,-0.7386350095247013 l 29.589323469521343 -33.6672184711237" fill="#89ff24" stroke="none" /><path d="M 85.86807049272751 115.53346607816431 l -31.900619017504432 35.0643684661633 a68.4042132054824,68.4042132054824 0 0,0 -0.8617961109934582,-0.7976656144666636 l 32.49784489981186 -34.51158510556426" fill="#58ff2a" stroke="none" /><path d="M 85.08716467003676 114.78537596483092 l -33.334206258834065 33.049300225009354 a67.9406599044932,67.9406599044932 0 0,0 -0.8140365128806892,-0.8352731749182607 l 33.896629572865564 -32.472204358023355" fill="#61ff29" stroke="none" /><path d="M 84.58840730492382 114.26474011684316 l -42.589231987537005 39.41995730734924 a79.0325401425914,79.0325401425914 0 0,0 -0.9130226641380523,-1.003571845917089 l 43.25965235251694 -38.68304788587448" fill="#42ffd6" stroke="none" /><line stroke="#e1ed5e" stroke-width="0.3" x1="26.387840678322732" x2="22.057713659400548" y1="142.50000000000003" y2="145.00000000000006" /><path d="M 25.521815274538298 143.00000000000003 a86.0,86.0 0 0,1 -11.493303480769221,-40.785679425670985" fill="none" id="id33" stroke="none" /><text fill="#e1ed5e" style="font-size:6.75px; font-family:Arial;" text-anchor="middle"><textPath startOffset="21.40746469413373" xlink:href="#id33">September</textPath></text><line stroke="#e1ed5e" stroke-width="0.3" x1="15.003131293944662" x2="10.003315487706104" y1="100.72959589197737" y2="100.7725132973878" /><path d="M 14.003168132696942 100.73817937305945 a86.0,86.0 0 0,1 10.791469493833604,-42.45332614584628" fill="none" id="id34" stroke="none" /><text fill="#e1ed5e" style="font-size:6.75px; font-family:Arial;" text-anchor="middle"><textPath startOffset="22.145653131862435" xlink:href="#id34">October</textPath></text><line stroke="#e1ed5e" stroke-width="0.3" x1="26.387840678322718" x2="22.05771365940052" y1="57.49999999999999" y2="54.99999999999999" /><path d="M 25.521815274538284 56.99999999999999 a86.0,86.0 0 0,1 29.574782752854787,-30.34633250058573" fill="none" id="id35" stroke="none" /><text fill="#e1ed5e" style="font-size:6.75px; font-family:Arial;" text-anchor="middle"><textPath startOffset="21.40746469413373" xlink:href="#id35">November</textPath></text><line stroke="#e1ed5e" stroke-width="0.3" x1="56.869717070023135" x2="54.33264160355391" y1="26.7553504044142" y2="22.446841604673864" /><path d="M 56.362301976729285 25.89364864446614 a86.0,86.0 0 0,1 42.16139366436587,-11.88097634709845" fill="none" id="id36" stroke="none" /><text fill="#e1ed5e" style="font-size:6.75px; font-family:Arial;" text-anchor="middle"><textPath startOffset="22.145653131862474" xlink:href="#id36">December</textPath></text></svg>