<?xml version="1.0" encoding="utf-8" ?>
<svg baseProfile="full" height="200mm" version="1.1" viewBox="0,0,200,200" width="200mm" xmlns="http://www.w3.org/2000/svg" xmlns:ev="http://www.w3.org/2001/xml-events" xmlns:xlink="http://www.w3.org/1999/xlink"><defs /><rect fill="#1a1a1a" height="200" width="200" x="0" y="0" /><text alignment-baseline="middle" fill="#e1ed5e" style="dominant-baseline: central; font-size:9.0px; font-family:Arial;" text-anchor="middle" x="100.0" y="100.0">2023</text><line stroke="#e1ed5e" stroke-width="0.3" x1="100.0" x2="100.0" y1="15.0" y2="10.0" /><path d="M 100.0 14.0 a86.0,86.0 0 0,1 42.46469731375804,11.215312516191453" fill="none" id="id13" stroke="none" /><text fill="#e1ed5e" style="font-size:6.75px; font-family:Arial;" text-anchor="middle"><textPath startOffset="22.20632615414155" xlink:href="#id13">January</textPath></text><line stroke="#e1ed5e" stroke-width="0.3" x1="143.23703022742887" x2="145.7803849466894" y1="26.81831364943548" y2="22.513508569990506" /><path d="M 143.74570117128098 25.957352633546492 a86.0,86.0 0 0,1 28.547481713284135,27.462654790039103" fill="none" id="id14" stroke="none" /><text fill="#e1ed5e" style="font-size:6.75px; font-family:Arial;" text-anchor="middle"><textPath startOffset="19.985693538727396" xlink:href="#id14">February</textPath></text><path d="M 113.06298171725822 83.55741782278167 l 11.65406503316511 -14.669156411150786 a39.73503086765666,39.73503086765666 0 0,0 0.531875339753968,0.4300728686304743 l -11.90484377148357 14.466377445256182" fill="#ff1502" stroke="none" /><path d="M 114.42810811169701 84.74124197986012 l 20.35423219068286 -21.526058806807864 a50.62542785895894,50.62542785895894 0 0,0 0.6280367741214049,0.6041708791119075 l -20.72175220841668 21.172504840933655" fill="#ffde14" stroke="none" /><path d="M 114.68862486808459 84.99185889309783 l 20.80512946074036 -21.257695767873212 a50.74463046059946,50.74463046059946 0 0,0 0.6189979837021129,0.6163398096431846 l -21.167963244609798 20.89642010757991" fill="#ffe015" stroke="none" /><path d="M 114.94478906791727 85.2469230424477 l 20.373139061521936 -20.111791948056943 a49.62776572808362,49.62776572808362 0 0,0 0.5949086736347019,0.6131056821293257 l -20.716311998859744 19.758122070377503" fill="#ffcd13" stroke="none" /><path d="M 116.60985879189232 87.15038557335679 l 16.113171491838294 -12.465370323410976 a41.37203359572052,41.37203359572052 0 0,0 0.4309075785352552,0.5670238629337957 l -16.32535501059766 12.186161684596147" fill="#ff3505" stroke="none" /><path d="M 116.82858285166822 87.43820079747576 l 23.344263258712004 -17.42546892816558 a50.13076714503954,50.13076714503954 0 0,0 0.5102294858223088,0.6959524452542 l -23.640755357047937 17.021054039239885" fill="#ffd513" stroke="none" /><path d="M 117.04232023915458 87.72973835380427 l 23.622272150891757 -17.007746357397604 a50.10799164711244,50.10799164711244 0 0,0 0.4979478811297531,0.7043119645630217 l -23.911532651825393 16.598607892502788" fill="#ffd513" stroke="none" /><line stroke="#e1ed5e" stroke-width="0.3" x1="172.23445277983987" x2="176.4835382374775" y1="55.19839476539836" y2="52.563006222186495" /><path d="M 173.08426987136738 54.67131705675599 a86.0,86.0 0 0,1 12.851231095245387,41.99856678651699" fill="none" id="id15" stroke="none" /><text fill="#e1ed5e" style="font-size:6.75px; font-family:Arial;" text-anchor="middle"><textPath startOffset="22.20632615414155" xlink:href="#id15">March</textPath></text><path d="M 118.21658344932153 89.55222093294921 l 25.93565143757191 -14.874905436226667 a50.89850877933399,50.89850877933399 0 0,0 0.42934675713662046,0.7637599731474668 l -26.18785583600096 14.426261953144406" fill="#ffe215" stroke="none" /><path d="M 118.73160827565052 90.50648371742162 l 27.415247826573008 -13.89454113082311 a51.735225501508054,51.735225501508054 0 0,0 0.395749807353084,0.7978074626432377 l -27.6503576468795 13.420574079680923" fill="#fff116" stroke="none" /><path d="M 118.89224826269711 90.83032412892265 l 39.00125772799697 -18.929927606140105 a64.35251161742937,64.35251161742937 0 0,0 0.475110934856458,1.0007047972024665 l -39.32132685669519 18.255780393297098" fill="#4dff2c" stroke="none" /><path d="M 119.34039704204932 91.81776055985345 l 34.98940690885977 -14.802783240414426 a58.99185422556338,58.99185422556338 0 0,0 0.3875998349285039,0.9386037444224995 l -35.23902843067447 14.198304925538624" fill="#9aff23" stroke="none" /><path d="M 119.47837535516314 92.15188598940014 l 31.18048323503096 -12.563059437565235 a54.61626090453612,54.61626090453612 0 0,0 0.34383914156778994,0.8750331109620307 l -31.39211592648045 12.024477321707419" fill="#deff1b" stroke="none" /><path d="M 119.61058180528143 92.48833698450437 l 22.781694475788424 -8.726330178435278 a45.395787373463456,45.395787373463456 0 0,0 0.27322948692198273,0.7321191837965717 l -22.92852855121203 8.332887857609373" fill="#ff810b" stroke="none" /><path d="M 119.7369772167798 92.82701384747503 l 33.88789486914926 -12.315837322240622 a57.05647331077192,57.05647331077192 0 0,0 0.32752295607004195,0.9259515015255995 l -34.09487090602911 11.730688194288408" fill="#b7ff1f" stroke="none" /><path d="M 119.85752413597 93.16781622104841 l 27.753360289930058 -9.548826766413839 a50.35011243586041,50.35011243586041 0 0,0 0.2749181024186385,0.821970133995173 l -27.913615686120465 9.069683529496352" fill="#ffd914" stroke="none" /><path d="M 120.08093135843002 93.85539295169968 l 22.413758195196742 -6.858433711406923 a44.4395961869336,44.4395961869336 0 0,0 0.21752992489305023,0.7334027668210548 l -22.528494017201496 6.471601557839339" fill="#ff6f0a" stroke="none" /><path d="M 120.18372546131832 94.20196356495316 l 24.016359542092488 -6.89901019160722 a45.98763428736216,45.98763428736216 0 0,0 0.21201006616059906,0.762713009751966 l -24.13155637881945 6.484585878436303" fill="#ff8c0c" stroke="none" /><path d="M 120.45610955862082 95.25157060432595 l 34.865233560767685 -8.093186021152338 a56.79223618635551,56.79223618635551 0 0,0 0.21285084583677016,0.9541686060295586 l -34.99937879360649 7.491839245572816" fill="#bcff1f" stroke="none" /><path d="M 120.53481517161879 95.60439243477599 l 35.3759428734054 -7.572445177699412 a57.177330749403076,57.177330749403076 0 0,0 0.19772657222489282,0.9641849873314258 l -35.50104874154529 6.962384534204574" fill="#b6ff1f" stroke="none" /><path d="M 120.67395015179393 96.31383870115 l 36.525890159956525 -6.512559125136247 a58.101941705732926,58.101941705732926 0 0,0 0.16707943341284426,0.9861122738270449 l -36.63258145488959 5.882861062993364" fill="#a7ff21" stroke="none" /><path d="M 120.73433829027371 96.67025291283417 l 20.352151159576355 -3.26837129270468 a41.61291604138583,41.61291604138583 0 0,0 0.10748835485954286,0.7082139585307171 l -20.405395407875197 2.917558221781881" fill="#ff3a05" stroke="none" /><path d="M 120.83666639777658 97.38593545837742 l 38.38493080155873 -4.815582522917294 a59.68582101591588,59.68582101591588 0 0,0 0.11911484235561946,1.0205032270946046 l -38.46213599691794 4.154135557497837" fill="#90ff24" stroke="none" /><line stroke="#e1ed5e" stroke-width="0.3" x1="184.98032266829074" x2="189.97916517819016" y1="98.17113171792111" y2="98.06355123074" /><path d="M 185.9800911702706 98.14961562048488 a86.0,86.0 0 0,1 -9.607161424134198,41.387399972396054" fill="none" id="id16" stroke="none" /><text fill="#e1ed5e" style="font-size:6.75px; font-family:Arial;" text-anchor="middle"><textPath startOffset="21.466115282336823" xlink:href="#id16">April</textPath></text><path d="M 120.81339534386255 102.79330883721812 l 19.531500411158124 2.621269225960536 a40.70661210523102,40.70661210523102 0 0,0 -0.09918059229824992,0.6936688315330477 l -19.48348576784327 -2.957083529473993" fill="#ff2803" stroke="none" /><path d="M 120.76222939487914 103.15116336523771 l 19.915494011953342 3.022651081321584 a41.14356774008924,41.14356774008924 0 0,0 -0.11229891057997163,0.6992854233791644 l -19.86051334701208 -3.3650157343939537" fill="#ff3104" stroke="none" /><path d="M 120.49622156327973 104.57218783832717 l 17.444823134617142 3.8914981442609773 a38.87360098035256,38.87360098035256 0 0,0 -0.15130981639883453,0.6518387289003662 l -17.375252752287757 -4.191205530509908" fill="#ff0400" stroke="none" /><path d="M 120.32669344350535 105.2749913415812 l 24.477143940031702 6.3520770217331455 a46.287931072965634,46.287931072965634 0 0,0 -0.20677904076733952,0.7695017343865512 l -24.364176822922584 -6.772469689295245" fill="#ff910d" stroke="none" /><path d="M 120.02730092923936 106.31721596034902 l 24.63129670700407 7.769455366519432 a46.82760566062613,46.82760566062613 0 0,0 -0.2490955437451141,0.7666372541680613 l -24.49390891224271 -8.19229152066529" fill="#ff9b0e" stroke="none" /><path d="M 119.79798401119884 107.00284435728193 l 23.996031216712844 8.487756718465144 a46.45292769536164,46.45292769536164 0 0,0 -0.27313378931693083,0.7515468819054295 l -23.846373166390684 -8.899551397376705" fill="#ff940d" stroke="none" /><path d="M 119.67450827220406 107.3425965602758 l 16.545882490114508 6.1749822754290475 a38.660595501809695,38.660595501809695 0 0,0 -0.23804934060502547,0.6214717111241677 l -16.437138869915977 -6.458877553386359" fill="#ff0000" stroke="none" /><path d="M 119.26925614724726 108.34839909993367 l 17.190767671307842 7.447894628502164 a39.73482392567793,39.73482392567793 0 0,0 -0.2773091758543439,0.6252589840671631 l -17.060017410722224 -7.742701949062014" fill="#ff1502" stroke="none" /><path d="M 118.64920377521936 109.65438752849418 l 26.950636990696584 13.951903619268306 a51.347857400575336,51.347857400575336 0 0,0 -0.41309960551681263,0.7814287729867712 l -26.706484876954878 -14.413747407341212" fill="#ffea16" stroke="none" /><line stroke="#e1ed5e" stroke-width="0.3" x1="174.80103733775053" x2="179.2010983576182" y1="140.37084112569926" y2="142.7455964860345" /><path d="M 175.68104954172406 140.8457921977663 a86.0,86.0 0 0,1 -30.038265399797805,32.042727171017184" fill="none" id="id17" stroke="none" /><text fill="#e1ed5e" style="font-size:6.75px; font-family:Arial;" text-anchor="middle"><textPath startOffset="22.206326154141568" xlink:href="#id17">May</textPath></text><path d="M 117.55443506779139 111.5257021239791 l 16.292329515819564 10.697042438556503 a40.49016977823241,40.49016977823241 0 0,0 -0.3875427803246375,0.5793238740904043 l -16.105783630084204 -10.975903226852713" fill="#ff2403" stroke="none" /><path d="M 117.35343817320211 111.8261652097733 l 21.10112005036719 14.380166589250328 a46.53520038132851,46.53520038132851 0 0,0 -0.4567963805540606,0.6580492556720685 l -20.85046276265099 -14.741257107109416" fill="#ff960d" stroke="none" /><path d="M 116.93607887273984 112.41649034213515 l 23.886799139877684 17.512330513658753 a50.61859033054215,50.61859033054215 0 0,0 -0.5212238026074522,0.6982644607691613 l -23.581814070575142 -17.92090785393723" fill="#ffde14" stroke="none" /><path d="M 115.80600337817218 113.82643327865902 l 18.581324797533785 16.254168836695708 a45.687317306731686,45.687317306731686 0 0,0 -0.5228829713324417,0.5874645613363192 l -18.298782976553003 -16.571607567772894" fill="#ff860c" stroke="none" /><path d="M 115.32070863581623 114.36230785411682 l 13.388928491417245 12.551371963366465 a39.352120975818195,39.352120975818195 0 0,0 -0.46752839870519386,0.49020165688848977 l -13.170893541333086 -12.779980736837462" fill="#ff0e01" stroke="none" /><path d="M 115.07121518719521 114.62390073753431 l 12.785717447235813 12.406236689221751 a38.81542251616678,38.81542251616678 0 0,0 -0.46940668763861926,0.4755064963067072 l -12.570270134541659 -12.624483679509124" fill="#ff0300" stroke="none" /><path d="M 114.0293411484842 115.62618273729858 l 28.783053584552853 32.05918583698244 a64.08428449192833,64.08428449192833 0 0,0 -0.8271683509546164,0.7298798965023929 l -28.22694288069165 -32.54988887525712" fill="#50ff2b" stroke="none" /><path d="M 112.63410532772338 116.77436683061366 l 25.911835796943322 34.40327808244394 a64.06981282970384,64.06981282970384 0 0,0 -0.8866500262276871,0.65592249259483 l -25.31580080029707 -34.84421052377854" fill="#51ff2b" stroke="none" /><path d="M 111.1453310114006 117.79835938074945 l 26.66812972205991 42.58724629355091 a71.24801179887798,71.24801179887798 0 0,0 -1.0450414094058431,0.6419497879950242 l -25.931109112721757 -43.03998454837431" fill="#37ff7b" stroke="none" /><line stroke="#e1ed5e" stroke-width="0.3" x1="143.8653032363475" x2="146.44561519142675" y1="172.8068346515853" y2="177.08958963109032" /><path d="M 144.38136562736335 173.6633856474863 a86.0,86.0 0 0,1 -40.68145358897372,12.25698825130547" fill="none" id="id18" stroke="none" /><text fill="#e1ed5e" style="font-size:6.75px; font-family:Arial;" text-anchor="middle"><textPath startOffset="21.466115282336833" xlink:href="#id18">June</textPath></text><path d="M 106.2309692047433 120.05430185196036 l 14.472470385394322 46.57947746416626 a69.77601992671079,69.77601992671079 0 0,0 -1.1500584133614613,0.3465031658727891 l -13.668536997592614 -46.82169599914477" fill="#35ff64" stroke="none" /><path d="M 105.18746579009965 120.34920634021253 l 10.658367070345605 41.810263342483196 a64.14740906907414,64.14740906907414 0 0,0 -1.0723208212348585,0.2635503684235667 l -9.937092964367535 -41.98753496922079" fill="#50ff2b" stroke="none" /><path d="M 104.83641907484287 120.43548508189849 l 9.877361083534902 41.73514783304015 a63.88804992792568,63.88804992792568 0 0,0 -1.0723452521036483,0.24406228812238961 l -9.157495682038393 -41.89898685474022" fill="#53ff2b" stroke="none" /><path d="M 104.48393922423573 120.51570834832081 l 9.163612361392849 41.92697296325346 a63.91669667357051,63.91669667357051 0 0,0 -1.0768701447779865,0.22566860905052538 l -8.440550755185484 -42.07849755303052" fill="#53ff2b" stroke="none" /><path d="M 103.7750983002368 120.6578951692458 l 7.729512036614126 42.29703087513824 a63.997490359049564,63.997490359049564 0 0,0 -1.0853700959325272,0.18870550352955007 l -7.000292969209549 -42.423814957188796" fill="#52ff2b" stroke="none" /><path d="M 103.41894727170886 120.7198165907248 l 9.903799502821245 60.01991049929296 a81.83152883937095,81.83152883937095 0 0,0 -1.3917755870242214,0.2173667233825829 l -8.869188052188507 -60.18149553002265" fill="#49edff" stroke="none" /><path d="M 103.06178313531738 120.77559828337769 l 8.336009967739434 56.56363848187265 a78.1745945371739,78.1745945371739 0 0,0 -1.3329565333011508,0.1847356295879463 l -7.361124843251452 -56.6987486769532" fill="#43ffe0" stroke="none" /><path d="M 102.34483914955558 120.86867818915974 l 6.727987506643501 59.87796909798308 a81.25476743950281,81.25476743950281 0 0,0 -1.3912650353160787,0.14421030945003563 l -5.69628987472182 -59.984908775888876" fill="#48f5ff" stroke="none" /><path d="M 101.62511606390274 120.93702456842531 l 3.539563416629348 45.601620623635455 a66.73878346307775,66.73878346307775 0 0,0 -1.1461186008141495,0.0790430490331388 l -2.7540820550362684 -45.65579201718487" fill="#30ff33" stroke="none" /><path d="M 100.90346689309514 120.98055641714683 l 2.0071213253874287 46.609922870649 a67.65311828830602,67.65311828830602 0 0,0 -1.1638902277767784,0.04008673276022442 l -1.204510745935998 -46.637566401835315" fill="#31ff42" stroke="none" /><line stroke="#e1ed5e" stroke-width="0.3" x1="102.19456741930631" x2="102.32365962044197" y1="184.97166512339345" y2="189.96999836594603" /><path d="M 102.22038585953345 185.97133177190398 a86.0,86.0 0 0,1 -42.740103519485714,-10.115201625700543" fill="none" id="id19" stroke="none" /><text fill="#e1ed5e" style="font-size:6.75px; font-family:Arial;" text-anchor="middle"><textPath startOffset="22.20632615414155" xlink:href="#id19">July</textPath></text><path d="M 98.73552117531835 120.96189622390904 l -2.6777137763600742 44.38979696755539 a65.47048713347874,65.47048713347874 0 0,0 -1.1243378919179217,-0.07754092382546993 l 3.441414429056926 -44.33712769921364" fill="#3eff2e" stroke="none" /><path d="M 98.01472825383883 120.90594882070398 l -4.654599449611027 49.015364300935815 a70.23587344193025,70.23587344193025 0 0,0 -1.2025966970787156,-0.12465406477342869 l 5.497628743295336 -48.92798086770663" fill="#36ff6b" stroke="none" /><path d="M 91.07499286063937 119.00905698771935 l -18.440571438477168 39.27592077928959 a64.3895451467126,64.3895451467126 0 0,0 -0.9992255750733398,-0.47968899887340694 l 19.113909681550748 -38.95267750391662" fill="#4cff2c" stroke="none" /><line stroke="#e1ed5e" stroke-width="0.3" x1="58.666819895761336" x2="56.23545636021788" y1="174.27360380694188" y2="178.64263932499728" /><path d="M 58.180547188652646 175.14741091055294 a86.0,86.0 0 0,1 -31.652253787137756,-30.449443065178592" fill="none" id="id20" stroke="none" /><text fill="#e1ed5e" style="font-size:6.75px; font-family:Arial;" text-anchor="middle"><textPath startOffset="22.20632615414155" xlink:href="#id20">August</textPath></text><path d="M 89.7882731507175 118.34994917583269 l -21.55603983610387 38.73509752687163 a65.32911722369343,65.32911722369343 0 0,0 -0.9779185026293823,-0.555287647898123 l 22.219607105654458 -38.35830671317887" fill="#3fff2d" stroke="none" /><path d="M 89.1626897886671 117.98757091392108 l -23.74311645463088 39.40839402184388 a67.00822859401418,67.00822859401418 0 0,0 -0.9828537229831903,-0.6037490317803779 l 24.41794937754638 -38.99385652323513" fill="#30ff37" stroke="none" /><path d="M 88.54995079064634 117.60387380957326 l -28.7712182121175 44.23429851638186 a73.76794635615133,73.76794635615133 0 0,0 -1.0584832694810302,-0.7015049936834707 l 29.528376180338494 -43.73249550160707" fill="#3cffa1" stroke="none" /><path d="M 87.65650970185807 116.9893568818739 l -27.353456737441896 37.64880331580545 a67.53648016985501,67.53648016985501 0 0,0 -0.9346245801137362,-0.6914129206501362 l 27.997466287974195 -37.172380446415545" fill="#31ff40" stroke="none" /><path d="M 87.07902340077011 116.55440617244103 l -27.411149951627642 35.119273413124 a65.5503592211822,65.5503592211822 0 0,0 -0.8835018108210123,-0.7019072720773778 l 28.01160925516601 -34.64223222704149" fill="#3cff2e" stroke="none" /><path d="M 86.79598089348748 116.32954008644616 l -36.672091864095805 45.352736111478954 a79.3242059053197,79.3242059053197 0 0,0 -1.0543693046498346,-0.8676741566299994 l 37.44733129729033 -44.714766835991774" fill="#45fff0" stroke="none" /><path d="M 86.24171649860922 115.8653595955263 l -31.02185783205963 35.77284403081007 a68.35031186175212,68.35031186175212 0 0,0 -0.8822321291117846,-0.7784672785703872 l 31.633032314078005 -35.233553610467396" fill="#32ff4d" stroke="none" /><path d="M 85.44109423537348 115.13401014063109 l -37.23117167547554 38.7018735331912 a74.70284125917229,74.70284125917229 0 0,0 -0.9190229808081259,-0.8994574154177776 l 37.89184460865946 -38.05526601485085" fill="#3dffaf" stroke="none" /><path d="M 84.9287848128048 114.62390073753433 l -31.662668970303244 30.72291931048293 a65.11827713410224,65.11827713410224 0 0,0 -0.7736468347832355,-0.811165613270936 l 32.186822356465434 -30.173346580629495" fill="#42ff2d" stroke="none" /><path d="M 84.19399662182784 113.82643327865904 l -47.4180101345165 41.4792998359771 a84.0,84.0 0 0,0 -0.942629961716885,-1.0964916033538787 l 48.12498260580416 -40.65693113346169" fill="#4dd2ff" stroke="none" /><path d="M 83.95833913139862 113.55231037782056 l -33.37106456140374 28.192531202279575 a64.68577303371069,64.68577303371069 0 0,0 -0.7112477973077436,-0.8567437902009933 l 33.85140835860502 -27.613926154964823" fill="#48ff2c" stroke="none" /><path d="M 82.85270091963577 112.12312394758628 l -37.3277583309132 26.390689216438094 a66.7146586920397,66.7146586920397 0 0,0 -0.6548809153221393,-0.9434048018482077 l 37.77650015339747 -25.744243152402873" fill="#30ff32" stroke="none" /><path d="M 82.44556493220864 111.52570212397912 l -45.551282666821066 29.90757112692477 a75.4920376138083,75.4920376138083 0 0,0 -0.7038558961209905,-1.0923999813692338 l 46.0593434263191 -29.119049545634088" fill="#3fffba" stroke="none" /><path d="M 82.05923443525364 110.91462005526583 l -44.22374824477768 26.904393113522154 a72.76472039550117,72.76472039550117 0 0,0 -0.6417817996056063,-1.0756632113591413 l 44.68031092008152 -26.1391678082769" fill="#3aff92" stroke="none" /><line stroke="#e1ed5e" stroke-width="0.3" x1="26.63291911575756" x2="22.317208475507996" y1="142.92168965132927" y2="145.44649492493687" /><path d="M 25.769776987707644 143.4266507060508 a86.0,86.0 0 0,1 -11.730757126820373,-40.83630448921669" fill="none" id="id21" stroke="none" /><text fill="#e1ed5e" style="font-size:6.75px; font-family:Arial;" text-anchor="middle"><textPath startOffset="21.46611528233685" xlink:href="#id21">September</textPath></text><path d="M 81.02952815118164 109.00673069616217 l -40.28497629732554 19.12635254952225 a65.59480549486338,65.59480549486338 0 0,0 -0.47548544760822,-1.0241533529768678 l 40.608236361773585 -18.430079129266552" fill="#3cff2e" stroke="none" /><line stroke="#e1ed5e" stroke-width="0.3" x1="15.007084014347285" x2="10.007500721073583" y1="101.09737516637583" y2="101.16192664675087" /><path d="M 14.007167355692545 101.11028546245083 a86.0,86.0 0 0,1 10.666146001902534,-42.60595125391555" fill="none" id="id22" stroke="none" /><text fill="#e1ed5e" style="font-size:6.75px; font-family:Arial;" text-anchor="middle"><textPath startOffset="22.20632615414155" xlink:href="#id22">October</textPath></text><line stroke="#e1ed5e" stroke-width="0.3" x1="26.266209847984243" x2="21.928928074336255" y1="57.711370442889674" y2="55.22380399835377" /><path d="M 25.398753493254645 57.213857153982495 a86.0,86.0 0 0,1 29.58750427330803,-30.492523968695096" fill="none" id="id23" stroke="none" /><text fill="#e1ed5e" style="font-size:6.75px; font-family:Arial;" text-anchor="middle"><textPath startOffset="21.46611528233685" xlink:href="#id23">November</textPath></text><line stroke="#e1ed5e" stroke-width="0.3" x1="56.762969772571076" x2="54.21961505331055" y1="26.818313649435495" y2="22.513508569990535" /><path d="M 56.25429882871897 25.957352633546506 a86.0,86.0 0 0,1 42.265352541879196,-11.944610805530505" fill="none" id="id24" stroke="none" /><text fill="#e1ed5e" style="font-size:6.75px; font-family:Arial;" text-anchor="middle"><textPath startOffset="22.20632615414155" xlink:href="#id24">December</textPath></text></svg>