<?xml version="1.0" encoding="utf-8" ?>
<svg baseProfile="full" height="200mm" version="1.1" viewBox="0,0,200,200" width="200mm" xmlns="http://www.w3.org/2000/svg" xmlns:ev="http://www.w3.org/2001/xml-events" xmlns:xlink="http://www.w3.org/1999/xlink"><defs /><rect fill="#1a1a1a" height="200" width="200" x="0" y="0" /><text alignment-baseline="middle" fill="#e1ed5e" style="dominant-baseline: central; font-size:9.0px; font-family:Arial;" text-anchor="middle" x="100.0" y="100.0">2024</text><line stroke="#e1ed5e" stroke-width="0.3" x1="100.0" x2="100.0" y1="15.0" y2="10.0" /><path d="M 100.0 14.0 a86.0,86.0 0 0,1 42.35913384403234,11.155469271406648" fill="none" id="id25" stroke="none" /><text fill="#e1ed5e" style="font-size:6.75px; font-family:Arial;" text-anchor="middle"><textPath startOffset="22.145653131862478" xlink:href="#id25">January</textPath></text><path d="M 104.64783097203109 79.52079915486377 l 10.388052417550316 -45.77167567603042 a67.93567861682078,67.93567861682078 0 0,0 1.1350688209763455,0.2678731511182516 l -11.172253392266546 45.58660638126594" fill="#67ff28" stroke="none" /><path d="M 105.69591212413111 79.78721728523813 l 13.25041831791961 -47.02106010469143 a69.852366155273,69.852366155273 0 0,0 1.1513665312429442,0.3351460170492036 l -14.05564486154416 46.786670393339705" fill="#43ff2d" stroke="none" /><path d="M 106.72888874123014 80.10723608172694 l 12.719007949677701 -37.601486983617725 a60.694394901587025,60.694394901587025 0 0,0 0.9840995777719358,0.34232091744975807 l -13.362613299494656 37.377607633599375" fill="#fcff18" stroke="none" /><path d="M 108.73861861582097 80.90454125486305 l 16.441453821565176 -35.92754381011248 a60.51088214649493,60.51088214649493 0 0,0 0.9408326644962782,0.44035719241041316 l -17.05577519993296 35.640010386131536" fill="#fffe18" stroke="none" /><path d="M 110.02825361518725 81.54914285379988 l 21.682496044009245 -39.89335057055131 a66.40495627619724,66.40495627619724 0 0,0 0.9968832572052965,0.5529543383241915 l -22.36412348937064 39.51526331679398" fill="#84ff25" stroke="none" /><path d="M 110.34350942703115 81.72400993836675 l 31.030528281093456 -54.82797018489978 a84.0,84.0 0 0,0 1.2488301285584105,0.7210124108953133 l -31.967150877512267 54.287210876728295" fill="#4dd2ff" stroke="none" /><line stroke="#e1ed5e" stroke-width="0.3" x1="143.13028292997686" x2="145.6673583964461" y1="26.7553504044142" y2="22.446841604673864" /><path d="M 143.63769802327073 25.89364864446614 a86.0,86.0 0 0,1 29.32050498858742,28.57503671076993" fill="none" id="id26" stroke="none" /><text fill="#e1ed5e" style="font-size:6.75px; font-family:Arial;" text-anchor="middle"><textPath startOffset="20.669276256404974" xlink:href="#id26">February</textPath></text><path d="M 110.96478420261332 82.08984904055464 l 24.165217411979132 -39.47206655587535 a67.28176499183748,67.28176499183748 0 0,0 0.9798655815640206,0.6115085934410224 l -24.839247122332868 39.05142216559278" fill="#73ff27" stroke="none" /><path d="M 111.27062007382361 82.28071324371311 l 15.634657514198713 -24.580278459908847 a50.131299400352006,50.131299400352006 0 0,0 0.7221637305824835,0.4680978052288987 l -16.054306877038204 24.308266812976054" fill="#ff0000" stroke="none" /><path d="M 111.8722381534696 82.67804972795209 l 25.8986547085637 -37.78691121046746 a66.81038064174058,66.81038064174058 0 0,0 0.9404512608689554,0.6565080192121893 l -26.543501060606417 37.336758375450145" fill="#7cff26" stroke="none" /><path d="M 112.45986205192187 83.09580414077388 l 27.726915004189095 -37.61688531139339 a67.73127299978088,67.73127299978088 0 0,0 0.9300052441312253,0.6978932731590073 l -28.368573237231086 37.13537301097036" fill="#6bff28" stroke="none" /><path d="M 114.13192950727249 84.46653392183569 l 32.09432153617019 -35.277281465863815 a68.69205450060687,68.69205450060687 0 0,0 0.8654225032447213,0.8010221489955405 l -32.69517381072888 34.721141570735895" fill="#58ff2a" stroke="none" /><path d="M 114.65682725009322 84.96080404539774 l 29.34981372630381 -30.11549446065491 a63.051808193922746,63.051808193922746 0 0,0 0.768655826098098,0.7620861576593333 l -29.86246147253187 29.607228292766916" fill="#c9ff1d" stroke="none" /><path d="M 115.41159269507618 85.73525988315684 l 44.5367519459181 -41.222552706042045 a81.68625153603288,81.68625153603288 0 0,0 0.9436796396309662,1.037269232295447 l -45.23782928639094 40.451945898188924" fill="#48f9ff" stroke="none" /><path d="M 115.8921839302757 86.27271002978787 l 47.196758102620166 -40.767435550148804 a83.36599856278082,83.36599856278082 0 0,0 0.9261781277788113,1.0910355056816703 l -47.889630793906086 39.95123326201758" fill="#4cddff" stroke="none" /><line stroke="#e1ed5e" stroke-width="0.3" x1="172.87174338648825" x2="177.1583165268699" y1="56.24261187166439" y2="53.66864786411523" /><path d="M 173.72905801456457 55.72781907015455 a86.0,86.0 0 0,1 12.242430191666344,42.057860355516425" fill="none" id="id27" stroke="none" /><text fill="#e1ed5e" style="font-size:6.75px; font-family:Arial;" text-anchor="middle"><textPath startOffset="22.145653131862474" xlink:href="#id27">March</textPath></text><path d="M 119.16976305983485 91.42560881287824 l 32.39432791831363 -14.48957083864519 a56.487182818129575,56.487182818129575 0 0,0 0.3883254904405267,0.8885647169682919 l -32.63828729077113 13.931344051901048" fill="#ffa10e" stroke="none" /><path d="M 120.26092885502905 94.47779374421319 l 35.282485015692934 -9.616398185268915 a57.56950728325773,57.56950728325773 0 0,0 0.2516898263567502,0.9557072663140861 l -35.44236432285442 9.00931041458203" fill="#ffbb11" stroke="none" /><path d="M 120.86939407059847 97.66154086499901 l 35.12450612214149 -3.935774173694748 a56.344324136566506,56.344324136566506 0 0,0 0.0994547282371446,0.9621342776379727 l -35.1868932428603 3.3322353737738437" fill="#ff9e0e" stroke="none" /><path d="M 120.99303781780057 99.45929381324524 l 35.095667932709254 -0.9039399130418346 a56.10730714551298,56.10730714551298 0 0,0 0.016534471813555305,0.9630500903462378 l -35.10601383612148 0.30134290672653036" fill="#ff980e" stroke="none" /><line stroke="#e1ed5e" stroke-width="0.3" x1="184.99686870605535" x2="189.99668451229388" y1="99.2704041080226" y2="99.22748670261217" /><path d="M 185.99683186730306 99.26182062694052 a86.0,86.0 0 0,1 -10.086455211305974,41.156179273409016" fill="none" id="id28" stroke="none" /><text fill="#e1ed5e" style="font-size:6.75px; font-family:Arial;" text-anchor="middle"><textPath startOffset="21.40746469413373" xlink:href="#id28">April</textPath></text><path d="M 120.99922638620191 100.18025310272382 l 49.06385432695493 0.42115418022420803 a70.06566184471758,70.06566184471758 0 0,0 -0.020647911471933674,1.2026373284093639 l -49.04939498388433 -1.263338424602643" fill="#3fff2d" stroke="none" /><path d="M 120.592083275326 104.11899336999214 l 30.581157677760313 6.117088010823645 a52.18695192935983,52.18695192935983 0 0,0 -0.1832564428747544,0.8769484187347745 l -30.471643524061193 -6.641152880843828" fill="#ff3605" stroke="none" /><path d="M 120.43855184770803 104.8234425847677 l 34.79009097234983 8.210366740968132 a56.74577669999035,56.74577669999035 0 0,0 -0.23188073611333895,0.9461525328376684 l -34.6440227097202 -8.8063750984139" fill="#ffa70f" stroke="none" /><path d="M 120.16314734710363 105.8691983318838 l 45.3927031873881 13.213154337503994 a68.2766850593928,68.2766850593928 0 0,0 -0.33723376344349615,1.122541519166067 l -45.15919310394098 -13.990433460260784" fill="#60ff29" stroke="none" /><path d="M 119.31412917781788 108.2440532568976 l 30.7310759025 13.117268920047481 a54.413496824577635,54.413496824577635 0 0,0 -0.3740697763069733,0.8559448532042677 l -30.50137224417606 -13.642875843027594" fill="#ff6f0a" stroke="none" /><line stroke="#e1ed5e" stroke-width="0.3" x1="174.33088141563837" x2="178.70328620479359" y1="141.23008692659167" y2="143.65538615756765" /><path d="M 175.20536237346943 141.71514677278685 a86.0,86.0 0 0,1 -30.301960400862466,31.631185727798858" fill="none" id="id29" stroke="none" /><text fill="#e1ed5e" style="font-size:6.75px; font-family:Arial;" text-anchor="middle"><textPath startOffset="22.145653131862474" xlink:href="#id29">May</textPath></text><path d="M 116.1254893667686 113.45245675266167 l 38.98731220600812 32.524602474060785 a71.77263317127083,71.77263317127083 0 0,0 -0.7973783576317662,0.939309700310859 l -38.42323928486924 -33.1890789568212" fill="#31ff41" stroke="none" /><path d="M 115.16444852881244 114.52719865689866 l 35.47072673727605 33.980153834010174 a70.12049785836363,70.12049785836363 0 0,0 -0.840154417668612,0.8620724460924911 l -34.88218551845664 -34.5840489721704" fill="#3eff2d" stroke="none" /><path d="M 113.03279911837588 116.46651593811092 l 30.697031000317413 38.78469587601554 a70.46271673118517,70.46271673118517 0 0,0 -0.9549042121752402,0.7425392910739629 l -30.026716843506943 -39.30593621871029" fill="#38ff2e" stroke="none" /><path d="M 111.8722381534696 117.32195027204791 l 26.01302394616757 37.9537793460976 a67.01268065953289,67.01268065953289 0 0,0 -0.9544638823731639,0.6422058964303355 l -25.357663775697407 -38.39473491658505" fill="#78ff26" stroke="none" /><line stroke="#e1ed5e" stroke-width="0.3" x1="143.1302829299769" x2="145.66735839644613" y1="173.24464959558577" y2="177.55315839532614" /><path d="M 143.63769802327073 174.10635135553383 a86.0,86.0 0 0,1 -40.68552437913181,11.842963189579606" fill="none" id="id30" stroke="none" /><text fill="#e1ed5e" style="font-size:6.75px; font-family:Arial;" text-anchor="middle"><textPath startOffset="21.407464694133747" xlink:href="#id30">June</textPath></text><line stroke="#e1ed5e" stroke-width="0.3" x1="101.45913802915013" x2="101.54496967792366" y1="184.9874750549273" y2="189.98673829345242" /><path d="M 101.47630435890484 185.9873277026323 a86.0,86.0 0 0,1 -42.54439059252881,-10.42667462771756" fill="none" id="id31" stroke="none" /><text fill="#e1ed5e" style="font-size:6.75px; font-family:Arial;" text-anchor="middle"><textPath startOffset="22.145653131862474" xlink:href="#id31">July</textPath></text><line stroke="#e1ed5e" stroke-width="0.3" x1="58.13341422392154" x2="55.67067388415222" y1="173.97424548756322" y2="178.32567169271397" /><path d="M 57.64086615596768 174.84453072859336 a86.0,86.0 0 0,1 -31.369924170532247,-30.572349798747897" fill="none" id="id32" stroke="none" /><text fill="#e1ed5e" style="font-size:6.75px; font-family:Arial;" text-anchor="middle"><textPath startOffset="22.145653131862474" xlink:href="#id32">August</textPath></text><line stroke="#e1ed5e" stroke-width="0.3" x1="26.387840678322732" x2="22.057713659400548" y1="142.50000000000003" y2="145.00000000000006" /><path d="M 25.521815274538298 143.00000000000003 a86.0,86.0 0 0,1 -11.493303480769221,-40.785679425670985" fill="none" id="id33" stroke="none" /><text fill="#e1ed5e" style="font-size:6.75px; font-family:Arial;" text-anchor="middle"><textPath startOffset="21.40746469413373" xlink:href="#id33">September</textPath></text><line stroke="#e1ed5e" stroke-width="0.3" x1="15.003131293944662" x2="10.003315487706104" y1="100.72959589197737" y2="100.7725132973878" /><path d="M 14.003168132696942 100.73817937305945 a86.0,86.0 0 0,1 10.791469493833604,-42.45332614584628" fill="none" id="id34" stroke="none" /><text fill="#e1ed5e" style="font-size:6.75px; font-family:Arial;" text-anchor="middle"><textPath startOffset="22.145653131862435" xlink:href="#id34">October</textPath></text><line stroke="#e1ed5e" stroke-width="0.3" x1="26.387840678322718" x2="22.05771365940052" y1="57.49999999999999" y2="54.99999999999999" /><path d="M 25.521815274538284 56.99999999999999 a86.0,86.0 0 0,1 29.574782752854787,-30.34633250058573" fill="none" id="id35" stroke="none" /><text fill="#e1ed5e" style="font-size:6.75px; font-family:Arial;" text-anchor="middle"><textPath startOffset="21.40746469413373" xlink:href="#id35">November</textPath></text><line stroke="#e1ed5e" stroke-width="0.3" x1="56.869717070023135" x2="54.33264160355391" y1="26.7553504044142" y2="22.446841604673864" /><path d="M 56.362301976729285 25.89364864446614 a86.0,86.0 0 0,1 42.16139366436587,-11.88097634709845" fill="none" id="id36" stroke="none" /><text fill="#e1ed5e" style="font-size:6.75px; font-family:Arial;" text-anchor="middle"><textPath startOffset="22.145653131862474" xlink:href="#id36">December</textPath></text></svg>