<?xml version="1.0" encoding="utf-8" ?>
<svg baseProfile="full" height="200mm" version="1.1" viewBox="0,0,200,200" width="200mm" xmlns="http://www.w3.org/2000/svg" xmlns:ev="http://www.w3.org/2001/xml-events" xmlns:xlink="http://www.w3.org/1999/xlink"><defs /><rect fill="#1a1a1a" height="200" width="200" x="0" y="0" /><text alignment-baseline="middle" fill="#e1ed5e" style="dominant-baseline: central; font-size:9.0px; font-family:Arial;" text-anchor="middle" x="100.0" y="100.0">2023</text><line stroke="#e1ed5e" stroke-width="0.3" x1="100.0" x2="100.0" y1="15.0" y2="10.0" /><path d="M 100.0 14.0 a86.0,86.0 0 0,1 42.46469731375804,11.215312516191453" fill="none" id="id13" stroke="none" /><text fill="#e1ed5e" style="font-size:6.75px; font-family:Arial;" text-anchor="middle"><textPath startOffset="22.20632615414155" xlink:href="#id13">January</textPath></text><line stroke="#e1ed5e" stroke-width="0.3" x1="143.23703022742887" x2="145.7803849466894" y1="26.81831364943548" y2="22.513508569990506" /><path d="M 143.74570117128098 25.957352633546492 a86.0,86.0 0 0,1 28.547481713284135,27.462654790039103" fill="none" id="id14" stroke="none" /><text fill="#e1ed5e" style="font-size:6.75px; font-family:Arial;" text-anchor="middle"><textPath startOffset="19.985693538727396" xlink:href="#id14">February</textPath></text><path d="M 113.06298171725822 83.55741782278167 l 10.26696351486854 -12.923189740110942 a37.505131713335416,37.505131713335416 0 0,0 0.502026907667129,0.4059375123688984 l -10.48789382110016 12.744546130477914" fill="#ff2f04" stroke="none" /><path d="M 114.42810811169701 84.74124197986012 l 17.931610873991165 -18.963963197345223 a47.09932123037881,47.09932123037881 0 0,0 0.5842934473807169,0.562089833445158 l -18.2553875649843 18.652490277137762" fill="#ffd213" stroke="none" /><path d="M 114.68862486808459 84.99185889309783 l 18.328841008494447 -18.727541526311093 a47.20433598346606,47.20433598346606 0 0,0 0.5758124264684499,0.5733397049166078 l -18.64848923513022 18.409265970744364" fill="#ffd313" stroke="none" /><path d="M 114.94478906791727 85.2469230424477 l 17.94826739277089 -17.718026590868266 a46.22040381669409,46.22040381669409 0 0,0 0.5540632088921483,0.5710108402944094 l -18.25059486536615 17.406451555023743" fill="#ffc312" stroke="none" /><path d="M 116.60985879189232 87.15038557335679 l 14.195333846579185 -10.981704833942159 a38.947293502800505,38.947293502800505 0 0,0 0.4056528643912159,0.5337916194445568 l -14.382262651194516 10.735728438616569" fill="#ff4906" stroke="none" /><path d="M 116.82858285166822 87.43820079747576 l 20.565759541980988 -15.351437734886437 a46.66353650740048,46.66353650740048 0 0,0 0.4749401135222284,0.6478177810958846 l -20.826962268016842 14.995157510119057" fill="#ffcb12" stroke="none" /><path d="M 117.04232023915458 87.72973835380427 l 20.810678988088057 -14.983433748191068 a46.643471817046944,46.643471817046944 0 0,0 0.4635192350833785,0.6556150863291962 l -21.06551084297532 14.622992161530078" fill="#ffca12" stroke="none" /><line stroke="#e1ed5e" stroke-width="0.3" x1="172.23445277983987" x2="176.4835382374775" y1="55.19839476539836" y2="52.563006222186495" /><path d="M 173.08426987136738 54.67131705675599 a86.0,86.0 0 0,1 12.851231095245387,41.99856678651699" fill="none" id="id15" stroke="none" /><text fill="#e1ed5e" style="font-size:6.75px; font-family:Arial;" text-anchor="middle"><textPath startOffset="22.20632615414155" xlink:href="#id15">March</textPath></text><path d="M 118.21658344932153 89.55222093294921 l 22.848712984363697 -13.104449903638635 a47.339899246557586,47.339899246557586 0 0,0 0.3993286387387517,0.71036109002932 l -23.070899264394882 12.709205303674521" fill="#ffd513" stroke="none" /><path d="M 118.73160827565052 90.50648371742162 l 24.15220340589259 -12.240771476736624 a48.077027453272976,48.077027453272976 0 0,0 0.3677663365396387,0.7413944930578669 l -24.359329755385637 11.823217395179807" fill="#ffe115" stroke="none" /><path d="M 118.89224826269711 90.83032412892265 l 34.3592119134227 -16.676831261731788 a59.19256660979677,59.19256660979677 0 0,0 0.43701535420595455,0.9204657887681734 l -34.641185461470414 16.082923057323075" fill="#7bff26" stroke="none" /><path d="M 119.34039704204932 91.81776055985345 l 30.824863523400847 -13.040911906303862 a54.46995062118057,54.46995062118057 0 0,0 0.35788913819536283,0.8666569356518727 l -31.044774348482406 12.508380400198686" fill="#bdff1f" stroke="none" /><path d="M 119.47837535516314 92.15188598940014 l 27.469289285670804 -11.067766698876612 a50.6151534448267,50.6151534448267 0 0,0 0.3186499885301695,0.8109294639935481 l -27.655732824082676 10.59328822998728" fill="#f6ff19" stroke="none" /><path d="M 119.61058180528143 92.48833698450437 l 20.07014937055639 -7.6876963793944855 a42.49212812585576,42.49212812585576 0 0,0 0.25575285809091436,0.6852905073624983 l -20.19950681714893 7.341082735002654" fill="#ff860c" stroke="none" /><path d="M 119.7369772167798 92.82701384747503 l 29.854456726226427 -10.849969695780857 a52.76492450514387,52.76492450514387 0 0,0 0.302888051923718,0.8563053101320723 l -30.036797858959954 10.334466759222169" fill="#d5ff1c" stroke="none" /><path d="M 119.85752413597 93.16781622104841 l 24.450072717187002 -8.412296974624415 a46.85677466864356,46.85677466864356 0 0,0 0.2558440280301449,0.76494107936759 l -24.591254038988918 7.990182792334511" fill="#ffce13" stroke="none" /><path d="M 120.08093135843002 93.85539295169968 l 19.74600596155009 -6.0421225112243375 a41.649745661247636,41.649745661247636 0 0,0 0.20387372575112955,0.6873608521747452 l -19.84708558441292 5.701332272303063" fill="#ff780b" stroke="none" /><path d="M 120.18372546131832 94.20196356495316 l 21.157860924658106 -6.077869457941442 a43.01353165793603,43.01353165793603 0 0,0 0.19829899567384596,0.7133869941185804 l -21.259346690898315 5.71277116040391" fill="#ff8f0d" stroke="none" /><path d="M 120.45610955862082 95.25157060432595 l 30.715469656904265 -7.129910924793268 a52.53213766999778,52.53213766999778 0 0,0 0.19688448082907278,0.8825945223896149 l -30.833648524735374 6.6001382328536895" fill="#d9ff1c" stroke="none" /><path d="M 120.53481517161879 95.60439243477599 l 31.16539282659942 -6.671150206947762 a52.871397131596126,52.871397131596126 0 0,0 0.18283609931687256,0.8915737531881024 l -31.275608221831288 6.133700797596247" fill="#d4ff1c" stroke="none" /><path d="M 120.67395015179393 96.31383870115 l 32.17846996332756 -5.737414947995917 a53.68595813902754,53.68595813902754 0 0,0 0.1543807178342431,0.911163735649068 l -32.27246254268202 5.18266542403101" fill="#c8ff1d" stroke="none" /><path d="M 120.73433829027371 96.67025291283417 l 17.929777533402884 -2.8793600104125376 a39.15950540259513,39.15950540259513 0 0,0 0.1011510659010801,0.6664591423416454 l -17.976684492743264 2.5703017556788104" fill="#ff4d07" stroke="none" /><path d="M 120.83666639777658 97.38593545837742 l 33.816242052780524 -4.242417553439955 a55.081319417974086,55.081319417974086 0 0,0 0.10992565013827892,0.9417758399215463 l -33.884258055922395 3.6596979751935557" fill="#b4ff20" stroke="none" /><line stroke="#e1ed5e" stroke-width="0.3" x1="184.98032266829074" x2="189.97916517819016" y1="98.17113171792111" y2="98.06355123074" /><path d="M 185.9800911702706 98.14961562048488 a86.0,86.0 0 0,1 -9.607161424134198,41.387399972396054" fill="none" id="id16" stroke="none" /><text fill="#e1ed5e" style="font-size:6.75px; font-family:Arial;" text-anchor="middle"><textPath startOffset="21.466115282336823" xlink:href="#id16">April</textPath></text><path d="M 120.81339534386255 102.79330883721812 l 17.206803080413135 2.3092779582915552 a38.36107245929139,38.36107245929139 0 0,0 -0.09346574649526489,0.6536992132973828 l -17.16450328290127 -2.6051226435693473" fill="#ff3e05" stroke="none" /><path d="M 120.76222939487914 103.15116336523771 l 17.545092619564326 2.6628861501795065 a38.74602033352572,38.74602033352572 0 0,0 -0.10575494814283526,0.6585361630364164 l -17.4966559170602 -2.964501542909128" fill="#ff4506" stroke="none" /><path d="M 120.49622156327973 104.57218783832717 l 15.368488346062193 3.4283204488395653 a36.746231775983134,36.746231775983134 0 0,0 -0.14302934235969514,0.6161666634598938 l -15.307198437771945 -3.692355769648024" fill="#ff2103" stroke="none" /><path d="M 120.32669344350535 105.2749913415812 l 21.56380139164534 5.596033902348748 a43.27808622603302,43.27808622603302 0 0,0 -0.19333335814812344,0.7194653474437402 l -21.46427995715544 -5.966390182968036" fill="#ff930d" stroke="none" /><path d="M 120.02730092923936 106.31721596034902 l 21.699606437328317 6.844711656529203 a43.75352713747843,43.75352713747843 0 0,0 -0.23274323936320315,0.7163100361769749 l -21.57857094694887 -7.217220592683972" fill="#ff9b0e" stroke="none" /><path d="M 119.79798401119884 107.00284435728193 l 21.139952137089367 7.477518642942974 a43.42344445918131,43.42344445918131 0 0,0 -0.2553210425855193,0.7025338531708933 l -21.008106833498623 -7.8403002931199985" fill="#ff960d" stroke="none" /><path d="M 119.67450827220406 107.3425965602758 l 14.576542293515207 5.440017500020051 a36.558578843684984,36.558578843684984 0 0,0 -0.22510635116286998,0.5876816498904983 l -14.48074166275883 -5.690122716743693" fill="#ff1e03" stroke="none" /><path d="M 119.26925614724726 108.34839909993367 l 15.144671320404044 6.56142403494461 a37.50494940220713,37.50494940220713 0 0,0 -0.26174689055218914,0.5901701390341393 l -15.029483345120582 -6.821142510471437" fill="#ff2f04" stroke="none" /><path d="M 118.64920377521936 109.65438752849418 l 23.742891935004025 12.29130651101976 a47.73576505703766,47.73576505703766 0 0,0 -0.3840398940167765,0.7264587502669151 l -23.527799532762355 -12.69818027637281" fill="#ffdc14" stroke="none" /><line stroke="#e1ed5e" stroke-width="0.3" x1="174.80103733775053" x2="179.2010983576182" y1="140.37084112569926" y2="142.7455964860345" /><path d="M 175.68104954172406 140.8457921977663 a86.0,86.0 0 0,1 -30.038265399797805,32.042727171017184" fill="none" id="id17" stroke="none" /><text fill="#e1ed5e" style="font-size:6.75px; font-family:Arial;" text-anchor="middle"><textPath startOffset="22.206326154141568" xlink:href="#id17">May</textPath></text><path d="M 117.55443506779139 111.5257021239791 l 14.353167949132848 9.423848598846588 a38.170391742473356,38.170391742473356 0 0,0 -0.3653395335949238,0.5461330328055587 l -14.188825310127203 -9.669518545857953" fill="#ff3b05" stroke="none" /><path d="M 117.35343817320211 111.8261652097733 l 18.58960191688092 12.668596347232432 a43.495924805111116,43.495924805111116 0 0,0 -0.4269624038795021,0.615071187149243 l -18.368778605839278 -12.986708796568696" fill="#ff970d" stroke="none" /><path d="M 116.93607887273984 112.41649034213515 l 21.043721187259564 15.427960795858224 a47.093297524951794,47.093297524951794 0 0,0 -0.48492357161651106,0.649634369257828 l -20.77503634894796 -15.787908044625368" fill="#ffd113" stroke="none" /><path d="M 115.80600337817218 113.82643327865902 l 16.36972019731294 14.319549267655413 a42.74895929848428,42.74895929848428 0 0,0 -0.4892540025778132,0.5496820584422439 l -16.12080734508679 -14.599205495838524" fill="#ff8a0c" stroke="none" /><path d="M 115.32070863581623 114.36230785411682 l 11.795338359050774 11.0574703026545 a37.16779689687438,37.16779689687438 0 0,0 -0.44157722978321,0.4629919600251958 l -11.603254577888599 -11.258869379262203" fill="#ff2904" stroke="none" /><path d="M 115.07121518719521 114.62390073753431 l 11.263923289308835 10.929609460954739 a36.69497788582148,36.69497788582148 0 0,0 -0.44376350702305556,0.4495300897284223 l -11.074119157230243 -11.121880044663826" fill="#ff2103" stroke="none" /><path d="M 114.0293411484842 115.62618273729858 l 25.357208850142474 28.243406087746482 a58.95626467537472,58.95626467537472 0 0,0 -0.7609783992535014,0.6714749598998817 l -24.867288097982385 -28.675704189418653" fill="#7eff26" stroke="none" /><path d="M 112.63410532772338 116.77436683061366 l 22.82773195218986 30.308497495006588 a58.94351547347518,58.94351547347518 0 0,0 -0.8157081663313239,0.6034414006238403 l -22.30263881543997 -30.696948844370198" fill="#7eff26" stroke="none" /><path d="M 111.1453310114006 117.79835938074945 l 23.494009522599107 37.518385443217134 a65.26734382943916,65.26734382943916 0 0,0 -0.9573190221255687,0.5880635329527417 l -22.84471130054123 -37.91723744299826" fill="#30ff32" stroke="none" /><line stroke="#e1ed5e" stroke-width="0.3" x1="143.8653032363475" x2="146.44561519142675" y1="172.8068346515853" y2="177.08958963109032" /><path d="M 144.38136562736335 173.6633856474863 a86.0,86.0 0 0,1 -40.68145358897372,12.25698825130547" fill="none" id="id18" stroke="none" /><text fill="#e1ed5e" style="font-size:6.75px; font-family:Arial;" text-anchor="middle"><textPath startOffset="21.466115282336833" xlink:href="#id18">June</textPath></text><path d="M 106.2309692047433 120.05430185196036 l 12.749913870740095 41.03544937369846 a63.97055281250941,63.97055281250941 0 0,0 -1.0543718679667344,0.3176735946740587 l -12.041667028333114 -41.24883833747825" fill="#3dff2e" stroke="none" /><path d="M 105.18746579009965 120.34920634021253 l 9.389776488109657 36.83388131632361 a59.01187597740567,59.01187597740567 0 0,0 -0.986472629667108,0.2424509716123374 l -8.754350573699337 -36.990053546249975" fill="#7dff26" stroke="none" /><path d="M 104.83641907484287 120.43548508189849 l 8.701728159165189 36.76770627845846 a58.783386533435596,58.783386533435596 0 0,0 -0.9866647287374772,0.22456167995608392 l -8.067543281034851 -36.91204469199223" fill="#80ff25" stroke="none" /><path d="M 104.48393922423573 120.51570834832081 l 8.072931935001138 36.936699810546216 a58.80862365812284,58.80862365812284 0 0,0 -0.9908091996109594,0.20763370123587838 l -7.435931273960802 -37.07018949250864" fill="#80ff25" stroke="none" /><path d="M 103.7750983002368 120.6578951692458 l 6.809522500673876 37.2627123279723 a58.87980103860635,58.87980103860635 0 0,0 -0.9985762714009864,0.1736152846052782 l -6.16709725780084 -37.374406191098586" fill="#7fff26" stroke="none" /><path d="M 103.41894727170886 120.7198165907248 l 8.725019799072054 52.87616205232013 a74.5911791611028,74.5911791611028 0 0,0 -1.2686330517856026,0.1981343919324574 l -7.813550883677935 -53.0185147515997" fill="#3effb8" stroke="none" /><path d="M 103.06178313531738 120.77559828337769 l 7.343833242289466 49.83126582089092 a71.3695040674697,71.3695040674697 0 0,0 -1.216922803225529,0.16865441190122152 l -6.484981847877107 -49.950294798284745" fill="#39ff8b" stroke="none" /><path d="M 102.34483914955558 120.86867818915974 l 5.927202402133837 52.751114939201194 a74.08306562025857,74.08306562025857 0 0,0 -1.268469311455863,0.13148203059050137 l -5.018300494072371 -52.84532633824745" fill="#3dffb1" stroke="none" /><path d="M 101.62511606390274 120.93702456842531 l 3.1182740403180387 40.17397996573448 a61.294817275646714,61.294817275646714 0 0,0 -1.0526282705166266,0.07259540848653036 l -2.426283009022482 -40.2217037187373" fill="#5fff29" stroke="none" /><path d="M 100.90346689309514 120.98055641714683 l 1.7682277693683581 41.062271077255474 a62.10032524769575,62.10032524769575 0 0,0 -1.0683611269703444,0.03679651737439122 l -1.0611462907233613 -41.086624393055956" fill="#55ff2b" stroke="none" /><line stroke="#e1ed5e" stroke-width="0.3" x1="102.19456741930631" x2="102.32365962044197" y1="184.97166512339345" y2="189.96999836594603" /><path d="M 102.22038585953345 185.97133177190398 a86.0,86.0 0 0,1 -42.740103519485714,-10.115201625700543" fill="none" id="id19" stroke="none" /><text fill="#e1ed5e" style="font-size:6.75px; font-family:Arial;" text-anchor="middle"><textPath startOffset="22.20632615414155" xlink:href="#id19">July</textPath></text><path d="M 98.73552117531835 120.96189622390904 l -2.3590043102482356 39.106391169205395 a60.177477351338936,60.177477351338936 0 0,0 -1.0334399664416827,-0.07127207069340737 l 3.0318070374688486 -39.0599907539957" fill="#6eff28" stroke="none" /><path d="M 98.01472825383883 120.90594882070398 l -4.100595164819049 43.18140970670592 a64.37567319320974,64.37567319320974 0 0,0 -1.102256840564254,-0.1142534283807848 l 4.843284601988897 -43.104426909869375" fill="#38ff2e" stroke="none" /><path d="M 91.07499286063937 119.00905698771935 l -16.24571972212107 34.60118375058672 a59.22519229816352,59.22519229816352 0 0,0 -0.9190828526295772,-0.441215621835178 l 16.83891524275089 -34.316413852251976" fill="#7aff26" stroke="none" /><line stroke="#e1ed5e" stroke-width="0.3" x1="58.666819895761336" x2="56.23545636021788" y1="174.27360380694188" y2="178.64263932499728" /><path d="M 58.180547188652646 175.14741091055294 a86.0,86.0 0 0,1 -31.652253787137756,-30.449443065178592" fill="none" id="id20" stroke="none" /><text fill="#e1ed5e" style="font-size:6.75px; font-family:Arial;" text-anchor="middle"><textPath startOffset="22.20632615414155" xlink:href="#id20">August</textPath></text><path d="M 89.7882731507175 118.34994917583269 l -18.990375795270865 34.12473089188323 a60.05293370912177,60.05293370912177 0 0,0 -0.8989387505457822,-0.5104408834201427 l 19.574963312737854 -33.792786842668455" fill="#6fff27" stroke="none" /><path d="M 89.1626897886671 117.98757091392108 l -20.91714004300224 34.71788963339505 a61.532192244870835,61.532192244870835 0 0,0 -0.9025330992944811,-0.5544095444791901 l 21.51165234222903 -34.352691622087484" fill="#5cff2a" stroke="none" /><path d="M 88.54995079064634 117.60387380957326 l -25.346782158972243 38.96940060666143 a67.48734827301787,67.48734827301787 0 0,0 -0.9683640737908681,-0.6417789048295744 l 26.013820931503073 -38.52732368074054" fill="#33ff53" stroke="none" /><path d="M 87.65650970185807 116.9893568818739 l -24.0977668761626 33.16773065207932 a61.99756974537346,61.99756974537346 0 0,0 -0.8579726459775634,-0.6347076522651299 l 24.665124492558725 -32.74801305107442" fill="#56ff2a" stroke="none" /><path d="M 87.07902340077011 116.55440617244103 l -24.14859327222397 30.93927292967153 a60.24784282535801,60.24784282535801 0 0,0 -0.8120333567457076,-0.6451284097986822 l 24.677584121687033 -30.51901060586772" fill="#6dff28" stroke="none" /><path d="M 86.79598089348748 116.32954008644616 l -32.307270305348815 39.95471842922729 a72.38228526780128,72.38228526780128 0 0,0 -0.9620979991639541,-0.7917411540136158 l 32.990238433057456 -39.39268215635649" fill="#3bff9a" stroke="none" /><path d="M 86.24171649860922 115.8653595955263 l -27.329543950441987 31.51505362654229 a62.71453676625184,62.71453676625184 0 0,0 -0.80948832259112,-0.7142793270932569 l 27.867974625939695 -31.039951157676743" fill="#4dff2c" stroke="none" /><path d="M 85.44109423537348 115.13401014063109 l -32.79980677301055 34.095461316849594 a68.31096920118648,68.31096920118648 0 0,0 -0.8403877212562944,-0.8224962634180721 l 33.38184444664264 -33.52581495050895" fill="#34ff60" stroke="none" /><path d="M 84.9287848128048 114.62390073753433 l -27.894083839102773 27.066185981743306 a59.86718843473518,59.86718843473518 0 0,0 -0.7112605381822796,-0.7457538307019608 l 28.35585092866401 -26.582025034458844" fill="#72ff27" stroke="none" /><path d="M 84.19399662182784 113.82643327865904 l -41.77417738903142 36.54231007175091 a76.50155242792991,76.50155242792991 0 0,0 -0.8584839932907361,-0.9986108319138295 l 42.397003891892936 -35.81782214067555" fill="#41ffd1" stroke="none" /><path d="M 83.95833913139862 113.55231037782056 l -29.399141100485455 24.83697219999 a59.4861622600816,59.4861622600816 0 0,0 -0.654075848420714,-0.7878764947688534 l 29.822312948799706 -24.327234448107383" fill="#77ff27" stroke="none" /><path d="M 82.85270091963577 112.12312394758628 l -32.884897397147235 23.249590811989574 a61.273563906685126,61.273563906685126 0 0,0 -0.6014703275555756,-0.8664628666206018 l 33.280228631864944 -22.68008668318196" fill="#5fff29" stroke="none" /><path d="M 82.44556493220864 111.52570212397912 l -40.12963338241308 26.347882966556472 a69.00623305599221,69.00623305599221 0 0,0 -0.6433849918587344,-0.9985477950715516 l 40.577223237648866 -25.653213571563473" fill="#35ff6a" stroke="none" /><path d="M 82.05923443525364 110.91462005526583 l -38.960106059795265 23.702152141774384 a66.6035292531435,66.6035292531435 0 0,0 -0.5874403506511636,-0.9845838171971912 l 39.362327286144655 -23.02800623069108" fill="#32ff46" stroke="none" /><line stroke="#e1ed5e" stroke-width="0.3" x1="26.63291911575756" x2="22.317208475507996" y1="142.92168965132927" y2="145.44649492493687" /><path d="M 25.769776987707644 143.4266507060508 a86.0,86.0 0 0,1 -11.730757126820373,-40.83630448921669" fill="none" id="id21" stroke="none" /><text fill="#e1ed5e" style="font-size:6.75px; font-family:Arial;" text-anchor="middle"><textPath startOffset="21.46611528233685" xlink:href="#id21">September</textPath></text><path d="M 81.02952815118164 109.00673069616217 l -35.49013847657027 16.84987712352984 a60.28699897121423,60.28699897121423 0 0,0 -0.4370100722842886,-0.9412808174591972 l 35.77492316569439 -16.236476238791816" fill="#6cff28" stroke="none" /><path d="M 80.45479744820244 107.68017299344265 l -54.03940155919158 21.234466684947996 a79.06168699124858,79.06168699124858 0 0,0 -0.4868156377598042,-1.270922014031382 l 54.3969114765449 -20.301121104083457" fill="#45fff1" stroke="none" /><path d="M 79.76711848015287 105.62410040840567 l -60.698644559541364 16.872301225217015 a84.0,84.0 0 0,0 -0.3752476946329004,-1.3964362672978443 l 60.98008033051604 -15.824974024743632" fill="#4dd2ff" stroke="none" /><path d="M 79.07016306316243 101.71520430193888 l -50.23360414720706 4.116653856176816 a71.40200218830472,71.40200218830472 0 0,0 -0.08984221981293662,-1.225825709371473 l 50.29702292568433 -3.2513550103085818" fill="#39ff8c" stroke="none" /><path d="M 79.0095281055655 100.63252640178507 l -29.89659569054449 0.9009033333251205 a50.91016651073477,50.91016651073477 0 0,0 -0.018856003991253704,-0.8761644122285651 l 29.90767375722075 -0.3861491053064266" fill="#f1ff19" stroke="none" /><line stroke="#e1ed5e" stroke-width="0.3" x1="15.007084014347285" x2="10.007500721073583" y1="101.09737516637583" y2="101.16192664675087" /><path d="M 14.007167355692545 101.11028546245083 a86.0,86.0 0 0,1 10.666146001902534,-42.60595125391555" fill="none" id="id22" stroke="none" /><text fill="#e1ed5e" style="font-size:6.75px; font-family:Arial;" text-anchor="middle"><textPath startOffset="22.20632615414155" xlink:href="#id22">October</textPath></text><path d="M 79.05617556472873 98.46500227214037 l -38.828118591685154 -2.8457588536183285 a59.93226344335651,59.93226344335651 0 0,0 0.08426338162052316,-1.0282266870894468 l 38.773380726245136 3.5136994579155534" fill="#71ff27" stroke="none" /><path d="M 79.26566170972629 96.67025291283419 l -37.986249432047835 -6.100247889658864 a59.47295374973232,59.47295374973232 0 0,0 0.1710219508019146,-1.0093812346304794 l 37.8756156197257 6.753214912605172" fill="#77ff27" stroke="none" /><path d="M 79.32604984820605 96.31383870115002 l -13.698750297504382 -2.4424845188517916 a34.91479393804332,34.91479393804332 0 0,0 0.110587249696443,-0.5907615098601745 l 13.654677323898078 2.677924106174539" fill="#ff0000" stroke="none" /><path d="M 79.54389044137918 95.25157060432595 l -41.35544040303606 -9.599742723222995 a63.45500572701811,63.45500572701811 0 0,0 0.2561382449958708,-1.06185838750532 l 41.18406935777938 10.310186342387711" fill="#44ff2d" stroke="none" /><path d="M 80.52162464483688 92.15188598940014 l -36.52574814849889 -14.716742570416242 a60.379090767709094,60.379090767709094 0 0,0 0.3967145281654063,-0.9606756970666337 l 36.26701193344728 15.343292837936188" fill="#6bff28" stroke="none" /><path d="M 81.26839172434947 90.50648371742162 l -45.02003701632492 -22.816965215546553 a71.47194898751907,71.47194898751907 0 0,0 0.5656173197803432,-1.092592629438639 l 44.620610263384464 23.588530567245527" fill="#39ff8d" stroke="none" /><line stroke="#e1ed5e" stroke-width="0.3" x1="26.266209847984243" x2="21.928928074336255" y1="57.711370442889674" y2="55.22380399835377" /><path d="M 25.398753493254645 57.213857153982495 a86.0,86.0 0 0,1 29.58750427330803,-30.492523968695096" fill="none" id="id23" stroke="none" /><text fill="#e1ed5e" style="font-size:6.75px; font-family:Arial;" text-anchor="middle"><textPath startOffset="21.46611528233685" xlink:href="#id23">November</textPath></text><path d="M 82.15384107792192 88.93136811851018 l -32.79903502456498 -20.34277775627514 a59.595405236683845,59.595405236683845 0 0,0 0.5481994134412458,-0.8671198216901574 l 32.44400801487777 20.904345225679513" fill="#76ff27" stroke="none" /><path d="M 82.34701348167596 88.62581576622439 l -32.212180943741586 -20.754974250137074 a59.319623657810126,59.319623657810126 0 0,0 0.5604387106195925,-0.8535866057634881 l 31.850145597764072 21.30637891987823" fill="#79ff26" stroke="none" /><line stroke="#e1ed5e" stroke-width="0.3" x1="56.762969772571076" x2="54.21961505331055" y1="26.818313649435495" y2="22.513508569990535" /><path d="M 56.25429882871897 25.957352633546506 a86.0,86.0 0 0,1 42.265352541879196,-11.944610805530505" fill="none" id="id24" stroke="none" /><text fill="#e1ed5e" style="font-size:6.75px; font-family:Arial;" text-anchor="middle"><textPath startOffset="22.20632615414155" xlink:href="#id24">December</textPath></text></svg>